ply
format ascii 1.0
element vertex 359
property float x
property float y
property float z
end_header
20.000000 0.000000 10.000000
17.579000 0.031747 5.685540
13.698300 0.240823 6.793090
3.618860 0.000000 7.774990
16.803700 0.029503 3.464420
19.093500 0.000000 10.000000
12.037100 0.143034 7.452960
15.015500 0.000000 9.290130
10.477700 0.218656 7.145050
16.084300 0.125779 6.520440
4.039360 0.167564 4.575320
4.026930 0.045357 2.300820
3.480610 0.052731 5.962730
16.385000 0.000000 10.000000
2.847340 0.000000 7.255430
0.646436 0.000000 6.440710
17.778400 0.000000 0.713448
16.009100 0.022848 8.233230
5.688210 0.429305 3.857530
17.527400 0.021199 7.497610
10.651600 0.000000 0.765609
14.522000 0.262487 6.413200
4.093890 0.000000 8.520490
10.317300 0.096671 1.534180
7.953770 0.000000 9.218160
1.516200 0.000000 8.406340
16.087100 0.060270 2.987520
6.529330 0.226802 6.799010
13.011100 0.234430 2.430030
16.820600 0.078233 5.236370
9.095730 0.566598 6.122300
16.150500 0.020415 2.112000
16.101800 0.157614 5.662890
18.379500 0.008998 5.966560
14.870900 0.013044 1.361020
16.080000 0.109991 3.870990
11.224400 0.099648 7.697960
3.615790 0.005003 1.523890
17.564300 0.007142 8.345010
1.406040 0.000000 7.542440
15.383500 0.084183 2.560870
0.000000 0.000000 10.000000
2.639950 0.036020 5.607860
0.842081 0.000000 8.980310
7.085300 0.000000 9.197720
9.020600 0.000000 0.807415
14.459000 0.138102 7.212830
4.528980 0.000000 7.833430
4.303390 0.143895 5.541850
9.608090 0.150869 7.507690
15.345300 0.165906 3.399340
8.921080 0.312691 6.904410
13.283800 0.070479 1.596620
15.329700 0.230338 6.049330
19.157700 0.000000 9.193020
16.849000 0.008867 2.591790
18.241800 0.009456 7.276860
11.024600 0.000000 0.000000
12.712100 0.005693 8.650300
16.104400 0.149264 4.773330
10.382500 0.067694 7.871130
3.905010 0.132106 3.794030
4.823030 0.095637 2.355870
0.000000 0.000000 8.517160
16.752400 0.000000 9.373410
14.705100 0.314303 3.886500
14.555700 0.203224 2.950220
4.725760 0.255087 4.825210
16.787500 0.028396 7.823260
9.290560 0.027065 8.382050
2.073060 0.000000 6.961490
0.000000 0.000000 9.249370
15.251100 0.065094 7.687080
11.002200 0.013406 8.481100
1.331040 0.000000 10.000000
2.737340 0.011803 6.417690
6.858640 0.487287 2.960280
5.624820 0.160742 2.340580
4.139780 0.007169 7.159460
5.680990 0.115390 6.909770
5.478220 0.404284 4.633960
10.764700 0.623595 5.548340
8.742420 0.111934 7.692460
9.285640 0.785414 5.317990
15.372500 0.264275 5.197210
9.767230 0.373004 6.671680
16.866500 0.077354 6.122790
18.336400 0.003703 8.045190
18.425600 0.000000 1.977860
15.769800 0.000000 0.000000
15.400200 0.235288 4.317520
0.772076 0.000000 1.616520
12.238900 0.000000 9.228400
2.215200 0.015391 3.222840
11.896000 0.028806 8.346630
4.420040 0.018772 1.557780
1.924980 0.006789 6.113330
14.048700 0.371131 3.565190
11.321800 0.270210 6.896120
3.408130 0.094610 5.157830
17.560200 0.000459 3.087330
3.630620 0.064097 2.996110
13.878800 0.146631 2.284510
0.758853 0.000000 8.121590
18.217200 0.000000 9.815980
14.440400 0.042184 7.971630
9.541240 0.000000 10.000000
10.595600 0.000000 9.231190
1.506690 0.000535 2.831260
7.125490 0.778508 4.397290
16.856200 0.056932 6.966950
5.450050 0.000000 9.224640
0.672290 0.000000 9.815930
2.864660 0.000000 8.019270
9.700660 0.564161 2.899320
5.032010 0.140792 6.211110
4.227050 0.056339 6.368480
7.120660 0.134805 7.472540
6.043640 0.368605 3.062270
16.050300 0.071683 7.361380
5.245190 0.284750 5.453260
11.071600 0.645206 3.765380
14.691500 0.077438 2.127090
8.234360 0.480951 6.356030
12.511500 0.581714 4.086220
8.431440 0.734787 5.579010
19.284900 0.000000 0.890226
17.626300 0.000000 2.263030
0.815388 0.000000 0.795783
16.191400 0.000000 1.184820
14.715700 0.000000 10.000000
17.677500 0.028687 6.579890
7.359230 0.350622 6.617920
5.233050 0.038162 1.567280
4.813150 0.000000 0.789392
13.554800 0.014486 8.480530
0.785000 0.000000 4.172060
17.504400 0.023009 4.808980
4.790440 0.259483 3.969750
1.760190 0.015105 5.296490
3.049820 0.059201 3.592470
2.862800 0.022138 2.829640
12.250900 0.503452 5.799960
12.776000 0.063162 7.918130
11.147100 0.078245 1.482980
4.420000 0.137862 3.128950
7.382800 0.741935 3.598760
1.598570 0.015066 4.515340
7.880570 0.078771 7.799460
11.446200 0.000000 9.184330
6.530770 0.605587 3.749150
8.404130 0.015093 8.474180
6.420640 0.226396 2.265060
7.516230 0.010939 8.484260
3.200770 0.089375 4.346990
4.540570 0.000000 9.226640
7.200760 0.278610 2.180840
17.563600 0.000000 9.171220
6.915400 0.657862 5.195700
5.386300 0.023834 7.723110
10.124200 0.007725 8.548850
5.220650 0.243434 3.151570
2.133170 0.000000 7.800900
15.906700 0.000000 9.150870
6.048300 0.058729 1.527580
6.295860 0.596364 4.532490
4.865580 0.039810 7.025310
15.283600 0.149665 6.878840
10.615500 0.431259 6.363850
13.857500 0.480493 5.159650
3.487950 0.010172 6.831310
9.937230 0.608855 5.855480
14.591900 0.357684 5.592630
6.082490 0.465433 5.320790
8.859530 0.889840 3.941920
3.248610 0.000000 8.638350
11.987500 0.040028 1.262950
7.565620 0.607375 5.815510
8.643690 0.899211 4.769040
18.395100 0.000000 2.762710
16.949300 0.000000 0.819086
2.069610 0.000000 0.000000
8.034500 0.237043 7.108690
1.973000 0.000000 1.508520
5.768060 0.000000 0.000000
19.143000 0.000000 8.364860
1.341260 0.000000 6.678980
13.626600 0.094383 7.630900
18.234600 0.000000 3.512290
16.798700 0.057702 4.353610
13.614700 0.000000 0.779569
11.442800 0.470928 6.088030
1.083380 0.000000 5.795540
12.145000 0.323121 6.623970
2.261280 0.001442 2.303790
11.911500 0.535197 3.505160
14.050100 0.000000 9.286790
5.385770 0.000000 10.000000
2.771340 0.000000 1.546200
2.500970 0.048492 4.826470
2.329560 0.036691 4.042460
2.705460 0.000000 10.000000
7.675980 0.551972 2.821590
7.455800 0.000000 10.000000
5.888300 0.277690 6.120240
9.480730 0.124879 1.550760
6.726140 0.445407 5.987390
12.486000 0.130486 1.819330
2.330920 0.000000 8.638150
5.860290 0.010095 8.435200
6.882040 0.080155 1.481390
8.174930 0.000000 10.000000
14.414700 0.001293 8.682340
10.261300 0.000000 10.000000
3.216810 0.000000 0.782468
15.233100 0.011069 8.506170
12.559200 0.000000 10.000000
18.358200 0.000134 8.894450
13.939700 0.471833 4.358450
10.119200 0.766057 5.016940
8.851500 0.000000 9.183780
20.000000 0.000000 0.000000
10.923500 0.713367 4.684890
13.778400 0.391710 5.970270
9.489520 0.876174 4.482850
17.654000 0.000000 1.447640
7.996150 0.891999 4.188740
4.993060 0.000000 8.515690
7.355810 0.000000 0.744431
7.771800 0.821876 5.006280
0.000000 0.000000 0.000000
4.011040 0.000000 0.780527
18.200800 0.000990 4.386210
1.449080 0.000000 2.023000
17.511800 0.009228 3.940840
0.000000 0.000000 6.063870
19.051500 0.000000 4.721370
0.725250 0.000000 7.278410
0.000000 0.000000 0.686624
18.289700 0.005567 5.175090
11.564300 0.621134 5.252750
12.735800 0.432407 3.243970
3.651200 0.000000 9.254520
6.722400 0.000000 10.000000
4.051720 0.000000 10.000000
6.704930 0.025823 8.341550
6.293100 0.000000 9.171590
1.360470 0.000000 0.000000
14.082600 0.033844 1.471130
12.873300 0.198897 7.110630
0.762585 0.000000 3.319160
8.619560 0.165585 1.615170
7.940800 0.296546 2.077130
15.506400 0.021561 1.693330
8.221820 0.000000 0.799092
1.512620 0.007629 3.700180
7.872700 0.000000 0.000000
15.558700 0.000000 10.000000
13.254000 0.000000 10.000000
6.251280 0.075271 7.615010
3.192300 0.013172 2.213780
19.207500 0.000000 2.479840
9.011280 0.700023 3.141460
14.658300 0.378199 4.751930
12.362000 0.608477 4.947260
10.314700 0.783004 4.148720
8.231730 0.770909 3.371480
17.352500 0.000000 0.000000
18.474700 0.000000 1.258870
11.707200 0.652080 4.366730
5.632140 0.000000 0.774030
18.606700 0.005791 6.686180
11.818600 0.000000 10.000000
20.000000 0.000000 2.160740
16.886100 0.000000 1.707310
0.000000 0.000000 4.569850
0.000000 0.000000 1.397180
13.058900 0.515760 5.488600
19.119700 0.000000 5.411600
12.180900 0.331031 2.671490
13.585800 0.317090 3.012710
9.706410 0.000000 9.223300
11.656500 0.204555 2.099370
8.480360 0.496183 2.541060
2.412910 0.000000 0.767614
12.961700 0.373241 6.302010
9.428860 0.000000 0.000000
2.828620 0.000000 0.000000
0.837078 0.000000 4.998170
3.572180 0.000000 0.000000
4.346470 0.000000 0.000000
4.736520 0.000000 10.000000
7.720580 0.095200 1.440370
12.751800 0.000000 0.887519
1.595570 0.000000 0.794594
13.161500 0.564184 4.659430
13.279500 0.493498 3.835470
10.482200 0.545845 3.106610
15.429700 0.000000 0.763668
9.711170 0.783119 3.650920
20.000000 0.000000 9.276590
19.166400 0.000000 3.270900
18.592300 0.000000 0.560314
20.000000 0.000000 4.665410
7.109470 0.000000 0.000000
0.752564 0.000000 2.473840
18.762100 0.000000 3.951090
6.042550 0.000000 10.000000
0.000000 0.000000 3.762550
10.818000 0.270886 2.282720
16.550300 0.000000 0.000000
11.343800 0.432380 2.925730
8.647420 0.000000 0.000000
0.000000 0.000000 6.905300
10.016100 0.314269 2.280590
10.226500 0.000000 0.000000
16.769200 0.006224 8.641320
2.705380 0.000000 9.306550
14.497200 0.000000 0.698867
14.098800 0.000000 0.000000
19.220500 0.000000 1.710190
1.730540 0.000000 9.227520
20.000000 0.000000 7.166320
20.000000 0.000000 3.734190
11.045400 0.000000 10.000000
14.951000 0.000000 0.000000
9.187030 0.377772 2.283570
8.869000 0.000000 10.000000
6.435820 0.000000 0.000000
13.155100 0.000000 9.270420
17.329300 0.000000 10.000000
9.827590 0.000000 0.776400
6.500810 0.000000 0.754348
11.478900 0.000000 0.712839
0.000000 0.000000 2.143050
19.890900 0.000000 7.856540
19.137100 0.000000 0.000000
2.032950 0.000000 10.000000
20.000000 0.000000 5.505790
20.000000 0.000000 0.696922
0.000000 0.000000 7.717990
20.000000 0.000000 2.942660
19.434300 0.000000 4.088210
12.570200 0.000000 0.000000
11.834400 0.000000 0.000000
5.089750 0.000000 0.000000
13.970900 0.000000 10.000000
20.000000 0.000000 6.334860
19.083100 0.000000 7.529420
20.000000 0.000000 1.446220
0.682225 0.000000 0.000000
19.248900 0.000000 6.084630
0.000000 0.000000 2.946070
0.000000 0.000000 5.345830
18.204900 0.000000 0.000000
20.000000 0.000000 8.543130
19.368700 0.000000 6.850910
13.311300 0.000000 0.000000
3.353340 0.000000 10.000000
